<svg width="416" height="384" viewBox="0 0 416 384" fill="none" xmlns="http://www.w3.org/2000/svg">
<path d="M67.8 1.89997C65.2 2.89997 61.7 4.79997 60 6.19997C55.6 9.69997 5.4 71.7 2.8 77C0.6 81.3 0.5 82.6 0.5 106V130.5L3.2 136.3C10.9 152.6 29.5 163.1 46 160.2C59.6 157.8 70.5 149.8 76.3 138.1L79.5 131.6L80 105.5L80.5 79.5L95.9 41.5C104.3 20.6 111.5 2.69997 111.7 1.69997C112.2 0.0999732 110.8 -2.68084e-05 92.4 -2.68084e-05C75.5 0.0999732 71.8 0.399973 67.8 1.89997Z" fill="white"/>
<path d="M127.6 39.4L111.9 78.8L112.2 105.2L112.5 131.5L115.4 137.5C119.2 145.2 126.8 152.8 134.5 156.6C140.1 159.3 141.3 159.5 152 159.5C162.7 159.5 163.9 159.3 169.5 156.6C177.2 152.8 184.8 145.2 188.6 137.5L191.5 131.5L191.8 65.7L192.1 -2.37674e-06H167.7H143.4L127.6 39.4Z" fill="white"/>
<path d="M224.2 65.7L224.5 131.5L227.4 137.5C231.2 145.2 238.8 152.8 246.5 156.6C252.1 159.3 253.3 159.5 264 159.5C274.7 159.5 275.9 159.3 281.5 156.6C289.2 152.8 296.8 145.2 300.6 137.5L303.5 131.5L303.8 105.2L304.1 78.8L288.4 39.4L272.6 -2.37674e-06H248.3H223.9L224.2 65.7Z" fill="white"/>
<path d="M304.3 1.70001C304.5 2.70001 311.7 20.6 320.1 41.5L335.5 79.5L336 105.5L336.5 131.6L339.7 138.1C347.5 153.9 365.8 163.3 382.3 160C395.1 157.5 407.3 148 412.8 136.3L415.5 130.5V106C415.5 82.6 415.4 81.3 413.2 77C410.7 71.9 361.6 11 356.7 6.80001C350 1.00001 344.9 9.81305e-06 323.3 9.81305e-06C305.2 9.81305e-06 303.8 0.10001 304.3 1.70001Z" fill="white"/>
<path d="M92.1 168.1C90.2 170.4 86 174.3 82.6 176.7C70 186 58.3 190.2 41.3 191.5L32 192.2V282.9C32 371.5 32.1 373.6 34 376.8C35.1 378.6 37.4 380.9 39.2 382C42.3 383.9 44.3 384 69.3 384H96V320.7C96 286 96.5 255.7 97 253.6C98.1 248.7 100.7 245.1 105.1 242.5C108.3 240.6 110.3 240.5 144 240.5C177.7 240.5 179.7 240.6 182.9 242.5C187.3 245.1 189.9 248.7 191 253.6C191.5 255.7 192 286 192 320.7V384H282.8C371.5 384 373.6 383.9 376.8 382C378.6 380.9 380.9 378.6 382 376.8C383.9 373.6 384 371.5 384 282.7V192H376.3C357.1 191.9 338 183.5 325.1 169.5L319.9 163.8L315.9 168.4C311.2 173.7 302 180.5 294.2 184.4C276.8 193.2 251.2 193.2 233.8 184.4C226 180.5 216.8 173.7 212.1 168.4L208 163.7L203.9 168.4C195.8 177.6 182 185.8 169.2 189.1C154.3 192.9 134.9 191 121.8 184.4C114.1 180.5 104.8 173.7 100.2 168.5C98 166 96.1 164 95.9 164C95.7 164 94 165.9 92.1 168.1ZM311 242.6C315.8 245.4 318.7 250.1 319.5 256.3C319.9 259.2 320 271.9 319.8 284.5C319.5 310.1 319 312.1 312.1 316.7C307.6 319.7 301.9 320.2 275.5 319.8C249.9 319.5 247.9 319 243.3 312.1C240.3 307.6 239.8 301.9 240.2 275.5C240.5 254.7 240.7 252.2 242.5 249.1C245 244.9 248.7 242.1 253.1 241C255 240.5 268 240.2 282 240.3C305.7 240.5 307.7 240.6 311 242.6Z" fill="white"/>
</svg>
